<svg xmlns="http://www.w3.org/2000/svg" height="800" width="1200" viewBox="-30 -24.374575 260 146.24745"><path d="M41.2441 70.453c0-1.0818-.8113-1.6227-1.8931-1.6227-.9466 0-1.6228.2704-2.2989.676v-1.3522c.541-.4057 1.4875-.6761 2.5693-.6761 1.8932 0 3.1102 1.0818 3.1102 2.8397v5.5443h-1.3523v-.6761c-.2704.2705-1.217.8114-2.1636.8114-1.6227 0-3.1102-.9466-3.1102-2.5693 0-1.4875 1.3523-2.5693 3.1102-2.5693.8114 0 1.758.4056 2.0284.676zm0 2.5693c-.2704-.6762-1.0818-1.0818-1.8931-1.0818-.9466 0-1.8932.4056-1.8932 1.4875 0 .9465.9466 1.4874 1.8932 1.4874.8113 0 1.6227-.4056 1.8931-1.0818zm17.4442-8.5193v11.359h-1.4875v-5.1386h-6.3556v5.1386h-1.4875V64.503h1.4875v4.8682h6.3556V64.503zm3.3807 7.4375c0 1.8931 1.217 2.8397 2.7045 2.8397.9466 0 1.6228-.2704 2.2989-.8113v1.217c-.6761.5409-1.4875.6761-2.434.6761-2.299 0-3.9217-1.6227-3.9217-4.192s1.4875-4.3272 3.6512-4.3272c2.1636 0 3.3806 1.6227 3.3806 4.0568v.5409zm0-1.0818h4.192c0-1.217-.6761-2.2989-2.0284-2.2989-.9466.1352-1.8931.8114-2.1636 2.2989zm14.1988 3.1102l1.758-6.2205h1.3522l-2.434 8.2489h-1.3523l-1.758-6.2205-1.758 6.2205h-1.3522l-2.434-8.2489h1.3522l1.758 6.2205 1.6227-6.2205h1.217zm6.0852 1.8931h-1.3523V63.827h1.3523zm3.2454-3.9215c0 1.8931 1.217 2.8397 2.7045 2.8397.9466 0 1.6228-.2704 2.2989-.8113v1.217c-.6761.5409-1.4875.6761-2.434.6761-2.299 0-3.9216-1.6227-3.9216-4.192s1.4874-4.3272 3.651-4.3272c2.1637 0 3.3807 1.6227 3.3807 4.0568v.5409zm0-1.0818h4.192c0-1.217-.676-2.2989-2.0284-2.2989-.9465.1352-1.8931.8114-2.1636 2.2989zm9.6011 5.0033h-1.3523v-7.0317h-1.758v-1.217h1.758v-2.1637h1.3523v2.1636h1.8932v1.217h-1.8932zm6.2204 0h-1.3522v-7.0317h-1.758v-1.217h1.758v-2.1637h1.3522v2.1636h1.8932v1.217h-1.8932zm9.3306-4.5977v4.5977h-1.4874V64.503h4.192c2.2988 0 3.7863 1.217 3.7863 3.3807 0 2.1636-1.4875 3.3806-3.7863 3.3806zm2.7046-5.5443h-2.7046v4.192h2.7046c1.4875 0 2.2988-.8113 2.2988-2.1636.1353-1.0818-.6761-2.0284-2.2988-2.0284zm9.8715 4.733c0-1.0818-.8113-1.6227-1.8932-1.6227-.9465 0-1.6227.2704-2.2988.676v-1.3522c.5409-.4057 1.4875-.6761 2.5693-.6761 1.8932 0 3.1102 1.0818 3.1102 2.8397v5.5443h-1.3523v-.6761c-.2704.2705-1.217.8114-2.1636.8114-1.6227 0-3.1102-.9466-3.1102-2.5693 0-1.4875 1.3523-2.5693 3.1102-2.5693.8114 0 1.758.4056 2.0284.676zm0 2.5693c-.2704-.6762-1.0818-1.0818-1.8932-1.0818-.9465 0-1.8931.4056-1.8931 1.4875 0 .9465.9466 1.4874 1.8931 1.4874.8114 0 1.6228-.4056 1.8932-1.0818zm7.0318-5.5443c.8114 0 1.6227.1352 2.1636.6761v1.3523c-.5409-.541-1.3522-.8114-2.1636-.8114-1.4875 0-2.7045 1.0818-2.7045 2.975s1.217 2.975 2.7045 2.975c.8114 0 1.4875-.2705 2.1636-.8114v1.3523c-.5409.5409-1.3522.6761-2.1636.6761-2.1636 0-3.9216-1.6227-3.9216-4.3272 0-2.434 1.758-4.0568 3.9216-4.0568zm10.9533 8.384h-1.758l-3.7862-4.0568v4.0568h-1.3523V63.827h1.3523v7.3022l3.651-3.5159h1.758l-4.0568 3.7864zm5.8148-5.409c0-1.0818-.8114-1.6227-1.8932-1.6227-.9466 0-1.6227.2704-2.2988.676v-1.3522c.5409-.4057 1.4874-.6761 2.5693-.6761 1.8931 0 3.1102 1.0818 3.1102 2.8397v5.5443h-1.3523v-.6761c-.2704.2705-1.217.8114-2.1636.8114-1.6227 0-3.1102-.9466-3.1102-2.5693 0-1.4875 1.3522-2.5693 3.1102-2.5693.8113 0 1.758.4056 2.0284.676zm0 2.5693c-.2705-.6762-1.0818-1.0818-1.8932-1.0818-.9466 0-1.8932.4056-1.8932 1.4875 0 .9465.9466 1.4874 1.8932 1.4874.8114 0 1.6227-.4056 1.8932-1.0818zm7.7079-4.0568c-.2705-.1352-.541-.2705-.9466-.2705-.8114 0-1.6227.541-1.8932 1.4875v5.5443h-1.3522V67.478h1.3522v1.0818c.4057-.6761 1.0818-1.217 2.0284-1.217.4057 0 .6762 0 .8114.1352zm7.0318 5.95c-.4057.5409-1.3523 1.0818-2.2989 1.0818-2.434 0-3.6511-1.8932-3.6511-4.3273 0-2.2988 1.3523-4.3272 3.6511-4.3272 1.0818 0 1.8932.5409 2.2989 1.0818v-4.733h1.3522v12.0352h-1.3522zm0-4.8682c-.4057-.8114-1.217-1.3523-2.1637-1.3523-1.6227 0-2.434 1.217-2.434 2.975s.9466 2.975 2.434 2.975c.8114 0 1.6228-.541 2.1637-1.3523zM38.5396 83.029v1.3523h-5.8147v3.6511h5.2738v1.3523h-5.2738v3.9216h5.8147v1.3522h-7.167v-11.359zm1.758 3.1102h1.3522v1.0819c.541-.6762 1.3523-1.217 2.434-1.217 1.8932 0 2.8398 1.217 2.8398 2.9749v5.409h-1.3522v-5.1385c0-1.0819-.541-1.8932-1.758-1.8932-.9466 0-1.758.6761-2.0284 1.4875v5.5443h-1.3522v-8.2489zm11.2237 8.1136h-1.3522v-7.0317h-1.758v-1.217h1.758v-2.1637h1.3522v2.1636h1.8932v1.217h-1.8932zm4.0568-3.7863c0 1.8932 1.217 2.8398 2.7046 2.8398.9465 0 1.6227-.2705 2.2988-.8114v1.217c-.6761.541-1.4875.6762-2.434.6762-2.299 0-3.9216-1.6228-3.9216-4.192 0-2.5694 1.4875-4.3273 3.651-4.3273 2.1637 0 3.3807 1.6227 3.3807 4.0568v.5409zm.1353-1.0818h4.192c0-1.217-.6762-2.2989-2.0284-2.2989-1.0818 0-1.8932.8114-2.1636 2.2989zm11.6294-1.8932c-.2704-.1352-.5409-.2704-.9465-.2704-.8114 0-1.6228.5409-1.8932 1.4874v5.5443h-1.3523V86.004h1.3523v1.0818c.4057-.6761 1.0818-1.217 2.0284-1.217.4057 0 .6761 0 .8113.1352zm2.8398 10.0068h-1.3523v-11.359h1.3523v.9465c.4057-.5409 1.3523-1.0818 2.2988-1.0818 2.4341 0 3.6512 2.0284 3.6512 4.3273 0 2.2988-1.217 4.3272-3.6512 4.3272-1.0818 0-1.8931-.5409-2.2988-1.0818zm0-5.6795c.4057.8113 1.217 1.3522 2.1636 1.3522 1.6227 0 2.4341-1.217 2.4341-2.975 0-1.7579-.9466-2.975-2.434-2.975-.8114 0-1.6228.541-2.1637 1.3523zm12.0352-4.3273c-.2705-.1352-.541-.2704-.9466-.2704-.8114 0-1.6227.5409-1.8932 1.4874v5.5443h-1.3523V86.004h1.3523v1.0818c.4057-.6761 1.0818-1.217 2.0284-1.217.4057 0 .6761 0 .8114.1352zm2.2988-2.975c-.5409 0-.9466-.4057-.9466-.9466 0-.5409.4057-.9465.9466-.9465.541 0 .9466.4056.9466.9465-.1352.541-.541.9466-.9466.9466zm.6761 9.7363h-1.3522V86.004h1.3522zm1.8932-2.0284c.8114.6762 1.758 1.0819 2.7045 1.0819.9466 0 1.758-.2705 1.758-1.0819 0-.676-.4057-.9465-1.217-1.217l-1.0819-.4057c-1.217-.4057-2.0284-.9466-2.0284-2.2988 0-1.4875 1.217-2.2989 2.8398-2.2989.9466 0 1.758.2705 2.434.6762v1.4874c-.676-.5409-1.4874-.9465-2.434-.9465-.8114 0-1.4875.4056-1.4875 1.0818 0 .6761.4057.9466 1.217 1.217l1.217.4057c1.2171.4057 1.8932 1.0818 1.8932 2.2988 0 1.4875-1.3522 2.4341-3.1102 2.4341-1.0818 0-2.0284-.2704-2.7045-.8113zm8.5193-1.758c0 1.8933 1.217 2.8399 2.7045 2.8399.9466 0 1.6227-.2705 2.2989-.8114v1.217c-.6762.541-1.4875.6762-2.4341.6762-2.2989 0-3.9216-1.6228-3.9216-4.192 0-2.5694 1.4875-4.3273 3.6511-4.3273 2.1637 0 3.3807 1.6227 3.3807 4.0568v.5409zm0-1.0817h4.192c0-1.217-.6761-2.2989-2.0284-2.2989-.9466 0-1.8932.8114-2.1636 2.2989zm15.1453-3.3807c.8114 0 1.6228.1352 2.1637.6762v1.3522c-.541-.5409-1.3523-.8113-2.1637-.8113-1.4874 0-2.7045 1.0818-2.7045 2.975 0 1.8931 1.217 2.975 2.7045 2.975.8114 0 1.4875-.2705 2.1637-.8114v1.3522c-.541.541-1.3523.6762-2.1637.6762-2.1636 0-3.9215-1.6228-3.9215-4.3273 0-2.434 1.758-4.0568 3.9215-4.0568zm7.167 8.5193c-2.2988 0-3.7863-1.758-3.7863-4.3273s1.4875-4.3272 3.7864-4.3272c2.2988 0 3.7863 1.758 3.7863 4.3272 0 2.5693-1.6227 4.3273-3.7863 4.3273zm0-7.3022c-1.4874 0-2.2988 1.217-2.2988 3.1102 0 1.758.9466 3.1102 2.2989 3.1102 1.4874 0 2.2988-1.217 2.2988-3.1102 0-1.8932-.8114-3.1102-2.2988-3.1102zm13.9284-1.217c1.6227 0 2.5693 1.217 2.5693 2.9749v5.409h-1.3523v-5.2738c0-1.0818-.5409-1.8931-1.4875-1.8931-.8113 0-1.4875.5409-1.758 1.4874v5.6796h-1.3522v-5.2739c0-1.0818-.5409-1.8931-1.4875-1.8931-.8113 0-1.4875.5409-1.758 1.4874v5.6796h-1.3522v-8.2489h1.3523v.9466c.4057-.6761 1.217-1.0818 2.1636-1.0818 1.0818 0 1.8932.541 2.1636 1.3523.2705-.8114 1.0818-1.3523 2.2989-1.3523zm6.2204 11.4942h-1.3523v-11.359h1.3523v.9465c.4057-.5409 1.3523-1.0818 2.2989-1.0818 2.434 0 3.651 2.0284 3.651 4.3273 0 2.2988-1.217 4.3272-3.651 4.3272-1.0819 0-1.8932-.5409-2.2989-1.0818zm0-5.6795c.4057.8113 1.217 1.3522 2.1636 1.3522 1.6227 0 2.4341-1.217 2.4341-2.975 0-1.7579-.9466-2.975-2.434-2.975-.8114 0-1.6228.541-2.1637 1.3523zm12.4408-2.975c0-1.0818-.8113-1.6227-1.8931-1.6227-.9466 0-1.6227.2704-2.2989.676V86.545c.541-.4057 1.4875-.6761 2.5693-.6761 1.8932 0 3.1102 1.0818 3.1102 2.8397v5.5443h-1.3522v-.6761c-.2705.2705-1.217.8114-2.1637.8114-1.6227 0-3.1102-.9466-3.1102-2.5693 0-1.4875 1.3523-2.5693 3.1102-2.5693.8114 0 1.758.4056 2.0284.676zm0 2.5693c-.2704-.6762-1.0818-1.0818-1.8931-1.0818-.9466 0-1.8932.4056-1.8932 1.4875 0 .9465.9466 1.4875 1.8932 1.4875.8113 0 1.6227-.4057 1.8931-1.0819zm3.6512-5.2739h1.3522v1.0819c.541-.6762 1.3523-1.217 2.4341-1.217 1.8932 0 2.8398 1.217 2.8398 2.9749v5.409h-1.3523v-5.1385c0-1.0819-.541-1.8932-1.758-1.8932-.9465 0-1.7579.6761-2.0284 1.4875v5.5443h-1.3522v-8.2489zm9.7363 11.359l1.217-3.1101-3.2454-8.2489h1.4875l2.434 6.491 2.4341-6.491h1.4875l-4.4625 11.359z" fill="#646569"/><path d="M113.455 30.9668c0 10.8182-8.6544 19.6079-19.202 19.6079-10.5478 0-19.2023-8.7897-19.2023-19.6079V14.334s9.1955 2.2988 9.1955 12.0351v4.5977c0 5.95 4.4624 10.683 10.0067 10.683 5.5443 0 10.0068-4.733 10.0068-10.683v-9.601.1352c.4057-8.1136 7.3022-10.683 9.0602-11.6295h.1352v11.359zM64.0975 11.4942c2.5693 0 5.0034.4057 7.167 1.3523v10.2772c-1.8932-1.6227-4.4625-2.5693-7.167-2.5693-6.0852 0-10.9533 4.733-10.9533 10.6829v19.3374h-9.1954V15.1453s3.7863.1353 6.2204 1.8932c3.5159-3.5159 8.5192-5.5443 13.9283-5.5443M20.0136 41.785c-6.0852 0-11.0886-4.8682-11.0886-10.8182 0-5.95 5.0034-10.818 11.0886-10.818 6.0852 0 11.0885 4.868 11.0885 10.818 0 5.95-5.0033 10.8182-11.0885 10.8182m0-30.2908C8.925 11.4942 0 20.284 0 30.9668 0 41.785 8.925 50.4394 20.0136 50.4394c4.5977 0 8.7897-1.4874 12.1703-4.0567 2.0284 3.3806 7.8432 4.0567 7.8432 4.0567V30.9668c0-10.6829-8.925-19.4726-20.0135-19.4726m159.973 30.2908c-6.0853 0-11.0887-4.8682-11.0887-10.8182 0-5.95 5.0034-10.818 11.0886-10.818 6.0852 0 11.0886 4.868 11.0886 10.818 0 5.95-5.0034 10.8182-11.0886 10.8182m0-30.2908c-11.0886 0-20.0135 8.7897-20.0135 19.4726 0 10.8182 8.925 19.4726 20.0135 19.4726 4.5977 0 8.7897-1.4874 12.1704-4.0567C194.1853 49.7633 200 50.4394 200 50.4394V30.9668c0-10.6829-8.925-19.4726-20.0135-19.4726M137.5254 41.785c-6.0852 0-11.0886-4.8682-11.0886-10.8182 0-5.95 5.0034-10.818 11.0886-10.818 6.0852 0 11.0886 4.868 11.0886 10.818.1352 5.95-4.8682 10.8182-11.0886 10.8182m0-30.2908c-4.0568 0-7.8431 1.217-11.0886 3.2454v-3.1102C126.0311 3.5158 119.405.9465 117.6471 0h-.1352v50.5747s5.95-.6762 8.2488-3.9216c3.3807 2.2989 7.4374 3.7863 11.7647 3.7863 11.0886 0 20.0135-8.7897 20.0135-19.4726.1352-10.6829-8.925-19.4726-20.0135-19.4726" fill="#f5831f"/></svg>