<svg xmlns="http://www.w3.org/2000/svg" height="800" width="1200" version="1.0" viewBox="-16.49682 -10.817175 142.97244 64.90305"><path d="M107.2487 10.28c1.5 0 2.73 1.22 2.73 2.73s-1.23 2.73-2.73 2.73c-1.51 0-2.7387-1.22-2.7387-2.73s1.2287-2.73 2.7387-2.73zm2.37 2.73c0-1.3-1.06-2.37-2.37-2.37s-2.3687 1.07-2.3687 2.37c0 1.31 1.06 2.37 2.3687 2.37 1.3113 0 2.37-1.06 2.37-2.37z"/><path d="M108.4787 14.5h-.5c-.0287-.11-.04-.21-.04-.38 0-.64-.1987-.81-.75-.81h-.5287v1.19h-.48v-3h1.01c.6412 0 1.29.14 1.29.87 0 .51-.3913.68-.7388.73.4488.1.6813.37.6813.9-.0025.21.0175.42.0562.5zm-.53-2.13c0-.35-.29-.51-.7612-.51h-.5288v1.09h.5288c.4925 0 .7612-.19.7612-.58zm-12.42 20.53L91.77 26.26l-4.76 6.64h-8.1913L87.85 20.7l-6.92-10.34h8.2687l2.67 4.78 3.0913-4.78h8.3L95.8 20.73l7.84 12.17zM77.65 10.36h-6.77 6.77zM74.27 34.8c2.34 0 4.2387 1.89 4.2387 4.23 0 2.34-1.9 4.2388-4.2387 4.2388-2.3413 0-4.24-1.9-4.24-4.2388-.0013-2.34 1.9-4.23 4.24-4.23zM62.4987 23.92L69.39 32.9h-8.52l-4.3-6.73v6.73h-6.76V10.36h8.86c2.63 0 4.76.74 6.1587 2.14 1.25 1.25 1.8813 2.94 1.8813 5.04 0 3.1-1.6313 5.5-4.2113 6.38zm-1.84-6.04c0-.76-.1987-1.32-.6-1.73-.8-.8-2.34-.91-3.4887-.92v5.31c2.89-.03 4.0887-.8 4.0887-2.66zm-17.8199-1.63V32.9h-6.73V16.25H30.97v-5.89h17.0088v5.89zM22.39 32.9V10.36h6.7587V32.9zM25.77 0c2.34 0 4.2387 1.9 4.2387 4.23 0 2.34-1.9 4.25-4.2387 4.25-2.35 0-4.24-1.91-4.24-4.25C21.5287 1.9 23.4187 0 25.77 0zm-5.44 13.47l-3.56 5.75c-1-1.66-2.9713-2.73-4.96-2.73-2.8413 0-4.92 2.31-4.92 5.15 0 2.84 2.0787 5.1413 4.92 5.1413 1.9887 0 3.96-1.07 4.96-2.73l3.56 5.76c-2.15 2.24-5.17 3.6312-8.52 3.6312C5.29 33.4425 0 28.1638 0 21.6412c0-6.52 5.29-11.82 11.81-11.82 3.35-.0012 6.37 1.3988 8.52 3.6488zm50.5594 19.4294v-22.54h6.759v22.54z"/></svg>